<svg width="40" height="40" viewBox="0 0 40 40" fill="none" xmlns="http://www.w3.org/2000/svg">
<path d="M20.9049 26.55L34.1799 12.6175C34.4015 12.385 34.5251 12.0762 34.5251 11.755C34.5251 11.4338 34.4015 11.125 34.1799 10.8925L34.1649 10.8775C34.0575 10.7644 33.9282 10.6744 33.7848 10.6128C33.6415 10.5513 33.4871 10.5196 33.3312 10.5196C33.1752 10.5196 33.0208 10.5513 32.8775 10.6128C32.7342 10.6744 32.6048 10.7644 32.4974 10.8775L19.9974 23.9975L7.50241 10.8775C7.39498 10.7644 7.26566 10.6744 7.12233 10.6128C6.97899 10.5513 6.82464 10.5196 6.66866 10.5196C6.51268 10.5196 6.35833 10.5513 6.21499 10.6128C6.07166 10.6744 5.94234 10.7644 5.83491 10.8775L5.81991 10.8925C5.5983 11.125 5.47467 11.4338 5.47467 11.755C5.47467 12.0762 5.5983 12.385 5.81991 12.6175L19.0949 26.55C19.2116 26.6725 19.3521 26.7701 19.5076 26.8367C19.6632 26.9034 19.8307 26.9377 19.9999 26.9377C20.1691 26.9377 20.3366 26.9034 20.4922 26.8367C20.6478 26.7701 20.7882 26.6725 20.9049 26.55Z" fill="black"/>
</svg>
