<svg width="40" height="40" viewBox="0 0 40 40" fill="none" xmlns="http://www.w3.org/2000/svg">
<path d="M4.16675 7.08325C4.16675 6.75173 4.29844 6.43379 4.53286 6.19937C4.76728 5.96495 5.08523 5.83325 5.41675 5.83325H6.34675C7.93008 5.83325 8.88008 6.89825 9.42175 7.88825C9.78341 8.54825 10.0451 9.31325 10.2501 10.0066C10.3055 10.0022 10.3611 9.99998 10.4167 9.99992H31.2467C32.6301 9.99992 33.6301 11.3233 33.2501 12.6549L30.2034 23.3366C29.9303 24.2947 29.3524 25.1377 28.5572 25.7379C27.7621 26.3382 26.793 26.663 25.7967 26.6633H15.8834C14.8792 26.6633 13.9028 26.3335 13.1043 25.7247C12.3057 25.1159 11.7292 24.2616 11.4634 23.2933L10.1967 18.6733L8.09675 11.5933L8.09508 11.5799C7.83508 10.6349 7.59175 9.74992 7.22841 9.08992C6.88008 8.44825 6.60008 8.33325 6.34841 8.33325H5.41675C5.08523 8.33325 4.76728 8.20156 4.53286 7.96714C4.29844 7.73272 4.16675 7.41477 4.16675 7.08325ZM12.6217 18.0666L13.8734 22.6316C14.1234 23.5349 14.9451 24.1633 15.8834 24.1633H25.7967C26.2496 24.1632 26.6901 24.0157 27.0516 23.7429C27.4131 23.4702 27.6758 23.087 27.8001 22.6516L30.6951 12.4999H10.9751L12.5984 17.9783L12.6217 18.0666ZM18.3334 31.6666C18.3334 32.5506 17.9822 33.3985 17.3571 34.0236C16.732 34.6487 15.8841 34.9999 15.0001 34.9999C14.116 34.9999 13.2682 34.6487 12.6431 34.0236C12.0179 33.3985 11.6667 32.5506 11.6667 31.6666C11.6667 30.7825 12.0179 29.9347 12.6431 29.3096C13.2682 28.6844 14.116 28.3333 15.0001 28.3333C15.8841 28.3333 16.732 28.6844 17.3571 29.3096C17.9822 29.9347 18.3334 30.7825 18.3334 31.6666ZM15.8334 31.6666C15.8334 31.4456 15.7456 31.2336 15.5893 31.0773C15.4331 30.921 15.2211 30.8333 15.0001 30.8333C14.7791 30.8333 14.5671 30.921 14.4108 31.0773C14.2545 31.2336 14.1667 31.4456 14.1667 31.6666C14.1667 31.8876 14.2545 32.0996 14.4108 32.2558C14.5671 32.4121 14.7791 32.4999 15.0001 32.4999C15.2211 32.4999 15.4331 32.4121 15.5893 32.2558C15.7456 32.0996 15.8334 31.8876 15.8334 31.6666ZM30.0001 31.6666C30.0001 32.5506 29.6489 33.3985 29.0238 34.0236C28.3986 34.6487 27.5508 34.9999 26.6667 34.9999C25.7827 34.9999 24.9348 34.6487 24.3097 34.0236C23.6846 33.3985 23.3334 32.5506 23.3334 31.6666C23.3334 30.7825 23.6846 29.9347 24.3097 29.3096C24.9348 28.6844 25.7827 28.3333 26.6667 28.3333C27.5508 28.3333 28.3986 28.6844 29.0238 29.3096C29.6489 29.9347 30.0001 30.7825 30.0001 31.6666ZM27.5001 31.6666C27.5001 31.4456 27.4123 31.2336 27.256 31.0773C27.0997 30.921 26.8878 30.8333 26.6667 30.8333C26.4457 30.8333 26.2338 30.921 26.0775 31.0773C25.9212 31.2336 25.8334 31.4456 25.8334 31.6666C25.8334 31.8876 25.9212 32.0996 26.0775 32.2558C26.2338 32.4121 26.4457 32.4999 26.6667 32.4999C26.8878 32.4999 27.0997 32.4121 27.256 32.2558C27.4123 32.0996 27.5001 31.8876 27.5001 31.6666Z" fill="black"/>
</svg>
